<svg xmlns="http://www.w3.org/2000/svg" viewBox="0 0 116 119"><defs><style>.cls-1{fill:#091227;}.cls-2{fill:#fff;}</style></defs><title>Fichier 4</title><g id="Calque_2" data-name="Calque 2"><g id="Calque_1-2" data-name="Calque 1"><rect class="cls-1" width="116" height="119" rx="25.5" ry="25.5"/></g><g id="Calque_4" data-name="Calque 4"><path class="cls-2" d="M49.69,69.92V82A15.82,15.82,0,0,0,40.31,79c-7.58,0-13.73,4.84-13.73,10.81s6.15,10.81,13.73,10.81c6.91,0,12.61-4,13.57-9.25H54V69.92Z"/><path class="cls-2" d="M78.62,17.74a23.44,23.44,0,0,1-9.64.12,4.37,4.37,0,0,1-.6-.15,6.74,6.74,0,0,1-3.76-2.22l0,25.59h4.47L69,26.75c2.73,1,7.4.79,11.74-.09A24.21,24.21,0,0,0,86.15,25c0-.85-.23-2.41-.18-3.29a42.35,42.35,0,0,1,1-7.2A24.84,24.84,0,0,1,78.62,17.74Z"/><path class="cls-2" d="M31.5,50a1.84,1.84,0,0,0-1.84,1.84,1.54,1.54,0,0,0,.84,1.41,12.65,12.65,0,0,0,1.94.66,4.89,4.89,0,0,1,1.86.91A2.79,2.79,0,0,1,35.14,57a3.32,3.32,0,0,1-3.31,3.31h-3a.72.72,0,0,1-.71-.71v0a.72.72,0,0,1,.71-.71H31.9A1.84,1.84,0,0,0,33.75,57a1.58,1.58,0,0,0-.84-1.42A12.39,12.39,0,0,0,31,54.82a5.26,5.26,0,0,1-1.86-.94,2.66,2.66,0,0,1-.84-2.09,3.31,3.31,0,0,1,3.31-3.31h2.1a.69.69,0,0,1,.51.21.68.68,0,0,1,.2.5v0a.71.71,0,0,1-.71.71Z"/><path class="cls-2" d="M41.59,56.75a2.08,2.08,0,0,0,4.16,0V52.46a.72.72,0,0,1,.72-.72h0a.67.67,0,0,1,.5.21.69.69,0,0,1,.21.51v4.29a2.08,2.08,0,0,0,4.16,0V52.46a.69.69,0,0,1,.21-.51.67.67,0,0,1,.5-.21h0a.69.69,0,0,1,.51.21.7.7,0,0,1,.2.51v4.29a3.52,3.52,0,0,1-3.52,3.52,3.35,3.35,0,0,1-2.8-1.38,3.53,3.53,0,0,1-6.33-2.14V52.46a.69.69,0,0,1,.21-.51.68.68,0,0,1,.5-.21h0a.68.68,0,0,1,.5.21.69.69,0,0,1,.21.51Z"/><path class="cls-2" d="M59.05,50.25a.85.85,0,0,1-.86-.86.82.82,0,0,1,.25-.6.83.83,0,0,1,.61-.25.82.82,0,0,1,.6.25.84.84,0,0,1,0,1.21A.82.82,0,0,1,59.05,50.25Zm0,1.48a.67.67,0,0,1,.5.21.69.69,0,0,1,.21.51v7.1a.72.72,0,0,1-.71.71h0a.69.69,0,0,1-.51-.21.67.67,0,0,1-.21-.5v-7.1a.72.72,0,0,1,.72-.72Z"/><path class="cls-2" d="M66,63.48a.72.72,0,0,1-.71-.71V56a4.27,4.27,0,1,1,1.45,3.21v3.57a.72.72,0,0,1-.71.71ZM71.57,58a2.82,2.82,0,1,0-2,.83A2.72,2.72,0,0,0,71.57,58Z"/><path class="cls-2" d="M86.76,54.23a.7.7,0,0,1-.35.95l-2.87,1.3-2.87,1.3a2.68,2.68,0,0,0,2.22,1.08,2.82,2.82,0,0,0,2.66-1.9.67.67,0,0,1,.69-.48.69.69,0,0,1,.59.3.67.67,0,0,1,.09.65,4.11,4.11,0,0,1-1.53,2,4.16,4.16,0,0,1-2.49.8,4.27,4.27,0,1,1,2.33-7.84A4.18,4.18,0,0,1,86.76,54.23Zm-3.87-1A2.81,2.81,0,0,0,80.06,56a2.76,2.76,0,0,0,0,.41L85,54.21A2.69,2.69,0,0,0,82.88,53.2Z"/></g></g></svg>